mtllib cube_1x1.mtl
o cube_1x1.obj
v -0.500000 0.000000 -0.500000
v 0.500000 0.000000 -0.500000
v -0.500000 1.000000 -0.500000
v 0.500000 1.000000 -0.500000
v -0.500000 0.000000 0.500000
v 0.500000 0.000000 0.500000
v -0.500000 1.000000 0.500000
v 0.500000 1.000000 0.500000
vn -0.577350 -0.577350 -0.577350
vn 0.577350 -0.577350 -0.577350
vn -0.577350 0.577350 -0.577350
vn 0.577350 0.577350 -0.577350
vn -0.577350 -0.577350 0.577350
vn 0.577350 -0.577350 0.577350
vn -0.577350 0.577350 0.577350
vn 0.577350 0.577350 0.577350
vt 0.655776 0.993938
vt 0.329514 0.992239
vt 0.331213 0.665977
vt 0.660874 0.015151
vt 0.332912 0.339714
vt 0.334611 0.013452
vt 0.995049 0.006062
vt 0.995049 0.332329
vt 0.668783 0.332329
vt 0.668783 0.006062
vt 0.659175 0.341413
vt 0.985437 0.343112
vt 0.983738 0.669375
vt 0.657476 0.667676
vt 0.006649 0.338015
vt 0.004950 0.664278
g Cube
usemtl Material1
f 4/14/4 2/1/2 1/2/1 3/3/3 
f 6/4/6 8/11/8 7/5/7 5/6/5 
f 6/7/6 5/8/5 1/9/1 2/10/2 
f 8/11/8 6/12/6 2/13/2 4/14/4 
f 7/5/7 8/11/8 4/14/4 3/3/3 
f 5/15/5 7/5/7 3/3/3 1/16/1 
