mtllib floor_25x25.mtl
o floor_25x25.obj
v -12.500000 0.000000 -12.500000
v 12.500000 0.000000 -12.500000
v -12.500000 1.000000 -12.500000
v 12.500000 1.000000 -12.500000
v -12.500000 0.000000 12.500000
v 12.500000 0.000000 12.500000
v -12.500000 1.000000 12.500000
v 12.500000 1.000000 12.500000
vn -0.577350 -0.577350 -0.577350
vn 0.577350 -0.577350 -0.577350
vn -0.577350 0.577350 -0.577350
vn 0.577350 0.577350 -0.577350
vn -0.577350 -0.577350 0.577350
vn 0.577350 -0.577350 0.577350
vn -0.577350 0.577350 0.577350
vn 0.577350 0.577350 0.577350
vt 0.958379 1.031720
vt 0.041621 1.031720
vt 0.041621 0.995049
vt 0.958379 0.041621
vt 0.041621 0.078291
vt 0.041621 0.041621
vt 0.995049 0.004950
vt 0.004950 0.004950
vt 0.004950 -0.985148
vt 0.995049 -0.985148
vt 0.958379 0.078291
vt 0.995049 0.078291
vt 0.995049 0.995049
vt 0.958379 0.995049
vt 0.004950 0.078291
vt 0.004950 0.995049
g Cube
usemtl Material1
f 4/14/4 2/1/2 1/2/1 3/3/3 
f 6/4/6 8/11/8 7/5/7 5/6/5 
f 6/7/6 5/8/5 1/9/1 2/10/2 
f 8/11/8 6/12/6 2/13/2 4/14/4 
f 7/5/7 8/11/8 4/14/4 3/3/3 
f 5/15/5 7/5/7 3/3/3 1/16/1 
